HIERARCHY
ROOT Hips
{
  OFFSET 0 0 0
  CHANNELS 6 Xposition Yposition Zposition Zrotation Yrotation Xrotation
  JOINT LeftThigh
  {
    OFFSET 8.409438 0 -5.917753
    CHANNELS 3 Zrotation Yrotation Xrotation
    JOINT LeftLeg
    {
      OFFSET 0 0 -42.358652
      CHANNELS 3 Zrotation Yrotation Xrotation
      JOINT LeftFoot
      {
        OFFSET 0 0 -39.357303
        CHANNELS 3 Zrotation Yrotation Xrotation
      }
    }
  }
  JOINT RightThigh
  {
    OFFSET -8.409438 0 -5.917753
    CHANNELS 3 Zrotation Yrotation Xrotation
    JOINT RightLeg
    {
      OFFSET 0 0 -42.358652
      CHANNELS 3 Zrotation Yrotation Xrotation
      JOINT RightFoot
      {
        OFFSET 0 0 -39.357303
        CHANNELS 3 Zrotation Yrotation Xrotation
      }
    }
  }
  JOINT SpineLow
  {
    OFFSET 0 0 4.719101
    CHANNELS 3 Zrotation Yrotation Xrotation
    JOINT SpineMid
    {
      OFFSET 0 0 12.899191
      CHANNELS 3 Zrotation Yrotation Xrotation
      JOINT Chest
      {
        OFFSET 0 0 12.899191
        CHANNELS 3 Zrotation Yrotation Xrotation
        JOINT LeftShoulder
        {
          OFFSET 7.550562 1.41573 9.438202
          CHANNELS 3 Zrotation Yrotation Xrotation
          JOINT LeftArm
          {
            OFFSET 9.155056 0 4.247191
            CHANNELS 3 Zrotation Yrotation Xrotation
            JOINT LeftForearm
            {
              OFFSET 0 0 25.771955
              CHANNELS 3 Zrotation Yrotation Xrotation
              JOINT LeftHand
              {
                OFFSET 0 0 25.197169
                CHANNELS 3 Zrotation Yrotation Xrotation
              }
            }
          }
        }
        JOINT RightShoulder
        {
          OFFSET -7.550562 1.41573 9.438202
          CHANNELS 3 Zrotation Yrotation Xrotation
          JOINT RightArm
          {
            OFFSET -9.155056 0 4.247191
            CHANNELS 3 Zrotation Yrotation Xrotation
            JOINT RightForearm
            {
              OFFSET 0 0 -25.771955
              CHANNELS 3 Zrotation Yrotation Xrotation
              JOINT RightHand
              {
                OFFSET 0 0 -25.197169
                CHANNELS 3 Zrotation Yrotation Xrotation
              }
            }
          }
        }
        JOINT Neck
        {
          OFFSET 0 0 15.101124
          CHANNELS 3 Zrotation Yrotation Xrotation
          JOINT Head
          {
            OFFSET 0 0 11.325843
            CHANNELS 3 Zrotation Yrotation Xrotation
            End Site
            {
              OFFSET 0 0 14.157303
            }
          }
        }
      }
    }
  }
}
MOTION
Frames: 10
Frame Time: 0.0
0.0  89.887642  0.0  15.296691  -10.11311  -109.660802  38.281185  2.953832  -71.563906  -5.659309  25.304021  102.855997  -5.826636  -0.921796  -2.613883  -1.87524  12.686875  7.837058  8.098526  2.297978  13.219557  9.47255  1.948539  3.717577  1.034723  0.779696  1.649839  2.880847  2.059052  4.543444  2.880847  2.059052  4.543444  -0.888214  23.13908  15.013674  -162.498763  56.799006  -137.371582  -28.764217  -22.608441  75.068084  83.042064  18.074817  45.852394  -0.206914  3.536269  18.774265  72.63854  45.881527  8.302936  -19.652918  9.123619  -60.055372  76.536333  1.336111  -26.065361  -8.911725  4.549318  2.139492  -6.696324  3.381709  1.670663  
0.0  89.887642  0.0  15.001958  -9.13107  -108.784711  37.804702  3.421357  -70.838615  -5.30853  25.121426  102.457233  -5.964831  -0.968039  -2.54062  -1.736798  12.366968  7.430805  7.773909  2.332656  12.976442  9.272275  1.966754  3.811583  1.041748  0.77201  1.610686  2.898327  2.039311  4.436273  2.898327  2.039311  4.436273  -0.763779  23.157729  14.965292  -161.983643  56.851683  -136.593794  -28.12643  -24.65759  75.757272  85.371755  18.699625  49.923103  -0.251116  3.683284  18.584897  71.630845  45.57746  8.033725  -20.19148  8.644073  -60.814275  76.418708  1.034755  -25.792674  -9.567145  4.521537  1.789752  -7.184961  3.364162  1.412948  
0.0  89.887642  0.0  14.748283  -8.213608  -107.988533  37.452948  3.818626  -69.998123  -4.940394  24.814707  102.053267  -6.138719  -0.999433  -2.457827  -1.522956  12.136731  7.106781  7.655019  2.335994  12.861104  9.01196  1.984923  3.797178  1.076895  0.75833  1.592296  2.992889  2.000419  4.3864  2.992889  2.000419  4.386399  -0.731133  23.141678  14.90863  -161.432105  56.782644  -135.766312  -27.296898  -27.124815  76.550238  87.710218  18.856504  54.363348  -0.500856  3.841276  18.337124  70.393648  45.404237  7.673223  -20.517853  8.101915  -61.760841  76.218451  0.666755  -25.524378  -10.203461  4.513518  1.434989  -7.659292  3.362326  1.151571  
0.0  89.887642  0.0  14.370136  -7.073859  -107.028298  36.905593  4.203932  -69.267322  -4.521755  24.502864  101.649406  -6.331197  -1.029346  -2.382565  -1.913208  11.857929  6.495325  7.318009  2.404346  12.698358  8.938024  2.061234  3.82486  1.079228  0.736409  1.550368  2.996572  1.94231  4.270807  2.996572  1.942309  4.270807  -0.789135  23.081167  14.816268  -161.015842  56.674318  -135.075011  -26.297786  -29.990307  77.312898  90.082304  18.451485  58.896536  -0.697692  4.033826  18.169384  69.541687  45.19585  7.436459  -21.262874  7.720812  -62.700226  75.942559  0.250727  -25.283271  -10.936479  4.485077  1.059071  -8.205974  3.346146  0.874649  
0.0  89.887642  0.0  13.967471  -5.973145  -106.092273  36.457254  4.500455  -68.502839  -4.038904  24.22159  101.242764  -6.49804  -1.070946  -2.286319  -2.35522  11.635386  5.905699  7.022577  2.438428  12.570347  8.733911  2.209265  3.810102  1.101677  0.694474  1.530735  3.054608  1.827227  4.215744  3.054609  1.827227  4.215744  -0.970531  23.008439  14.589742  -160.838569  56.501715  -134.547564  -25.202561  -33.075316  78.016988  92.162688  17.471179  63.321789  -0.961934  4.151404  17.924037  68.450846  45.104483  7.109703  -21.911677  7.433822  -63.638716  75.709209  -0.151978  -25.113597  -11.639933  4.491162  0.632633  -8.730136  3.357775  0.560184  
0.0  89.887642  0.0  13.496897  -4.780397  -105.151113  35.96411  4.740298  -67.689089  -3.530943  23.978794  100.796986  -6.650019  -1.120798  -2.187237  -2.996796  11.314117  5.223773  6.586294  2.486761  12.466288  8.612426  2.274278  3.83219  1.086595  0.645157  1.50351  3.009492  1.69474  4.138568  3.009492  1.69474  4.138568  -0.982633  22.842876  14.393432  -160.970734  56.254514  -134.236813  -24.119012  -36.277074  78.64233  93.979446  15.858912  67.319907  -1.147199  4.303838  17.665687  67.563521  45.036799  6.82792  -22.634902  7.105178  -64.594082  75.492232  -0.542316  -24.932887  -12.375084  4.456789  0.190891  -9.278018  3.34035  0.233639  
0.0  89.887642  0.0  13.045332  -3.54827  -104.270157  35.511713  4.981778  -66.734894  -3.034653  23.744784  100.327233  -6.775276  -1.175838  -2.080522  -3.955303  11.227623  4.395967  6.29803  2.395354  12.375521  8.468867  2.293395  3.829936  1.107045  0.578065  1.525541  3.061563  1.509165  4.196047  3.061563  1.509165  4.196046  -1.343986  22.635103  13.90894  -161.559042  55.878885  -134.277014  -23.19794  -39.40563  79.256401  95.376382  14.054896  70.806139  -1.256229  4.275543  17.438906  65.972755  45.305664  6.339145  -23.409761  6.778378  -65.525118  75.366592  -0.894636  -24.972258  -13.222564  4.43157  -0.379341  -9.909219  3.33373  -0.188392  
0.0  89.887642  0.0  12.612381  -2.271744  -103.412946  35.029237  5.202396  -65.596704  -2.515269  23.449948  99.763672  -6.871171  -1.245819  -1.962214  -4.755772  11.016503  3.72644  6.129515  2.277259  12.308242  8.321198  2.308969  3.864483  1.08249  0.521856  1.512881  2.990576  1.357774  4.158256  2.990576  1.357774  4.158256  -1.371985  22.370086  13.628315  -162.49183  55.529423  -134.601453  -22.596674  -42.379958  79.919743  96.263472  12.275415  73.746829  -1.472969  4.437274  17.150443  64.91019  45.430805  5.979671  -23.989266  6.253586  -66.542506  75.074325  -1.222572  -24.694973  -13.997766  4.367539  -0.842837  -10.487224  3.297006  -0.531915  
0.0  89.887642  0.0  12.186081  -0.935985  -102.506987  34.494284  5.431208  -64.346023  -1.969199  23.084756  99.136014  -6.980944  -1.32068  -1.843211  -5.95649  10.847791  2.732319  6.308525  2.156586  12.389774  8.186213  2.277501  3.936619  1.140951  0.453217  1.553632  3.146606  1.164648  4.267402  3.146606  1.164648  4.267401  -2.250187  22.086576  12.914908  -163.58757  55.046939  -135.083066  -22.27687  -44.9296  80.598353  96.806613  10.887031  76.150523  -2.11881  4.572607  16.664196  63.354009  45.745863  5.364114  -24.526065  5.654758  -67.569744  74.777886  -1.579313  -24.431929  -15.108405  4.238865  -1.49672  -11.315817  3.218491  -1.017768  
0.0  89.887642  0.0  11.775166  0.242709  -101.723295  34.146761  5.551372  -62.884756  -1.411478  22.731115  98.44512  -7.047065  -1.385151  -1.701297  -6.472534  10.570168  2.099528  6.09996  1.996256  12.408155  7.980101  2.239004  3.978584  1.161587  0.407942  1.55895  3.200099  1.039392  4.280023  3.200099  1.039392  4.280023  -2.583523  21.65231  12.547772  -164.796002  54.588273  -135.688725  -22.387655  -46.953712  81.388957  97.172674  10.272735  78.164934  -2.543924  4.665143  16.35652  62.173788  46.025735  4.882375  -24.990372  4.965833  -68.614749  74.363512  -1.987092  -24.002862  -16.00378  4.059025  -1.964171  -11.984902  3.098247  -1.367133  
